<?xml version="1.0" encoding="utf-8"?>
<!DOCTYPE svg PUBLIC "-//W3C//DTD SVG 1.1//EN" "http://www.w3.org/Graphics/SVG/1.1/DTD/svg11.dtd">
<svg version="1.1" id="Layer_1" xmlns="http://www.w3.org/2000/svg" xmlns:xlink="http://www.w3.org/1999/xlink" x="0px" y="0px"
	 viewBox="0 0 1299.116 1650.7815" enable-background="new 0 0 1299.116 1650.7815" xml:space="preserve">
<g>
	<path d="M848.1921,1625.3907H163.8249c-31.2681,0-61.2729-12.3401-83.4936-34.3386l-55.3409-54.7876
		c-10.6535-10.547-3.1848-28.7069,11.8064-28.7069h938.4235c14.9912,0,22.4599,18.1599,11.8064,28.7069l-55.3409,54.7876
		C909.465,1613.0507,879.4603,1625.3907,848.1921,1625.3907z M1279.1342,997.0688c0,118.3167-95.9146,214.2313-214.2313,214.2313
		c-42.214,0-81.5712-12.2167-114.7428-33.2972c-22.2216,172.3451-170.5161,306.6359-348.6561,306.6359H410.513
		c-193.3438,0-351.5341-158.1903-351.5341-351.5341V760.0079c0-30.7676,25.1735-55.941,55.941-55.941
		c260.7258,16.6079,521.4515,16.6079,782.1771,0c30.7676,0,55.9411,25.1734,55.9411,55.941v54.3302
		c32.5607-19.9758,70.8651-31.5007,111.8647-31.5007C1183.2196,782.8375,1279.1342,878.7521,1279.1342,997.0688z
		 M1210.9926,997.0688c0-80.6831-65.4066-146.0897-146.0897-146.0897c-44.9026,0-85.0662,20.2646-111.8647,52.1398v187.8998
		c26.7986,31.8752,66.9622,52.1399,111.8647,52.1399C1145.5859,1143.1586,1210.9926,1077.752,1210.9926,997.0688z"/>
	<path d="M266.3843,706.4752c0,0,0.4616-0.5204,1.3559-1.5286c0.4472-0.5042,1.0025-1.1302,1.6624-1.8742
		c0.6513-0.7534,1.3534-1.6492,2.1733-2.6287c3.2127-3.9729,7.723-9.9868,12.1947-18.1189
		c4.4285-8.1495,8.8345-18.4444,11.6925-30.587c1.3843-6.0757,2.5239-12.5549,2.9698-19.3924
		c0.2437-3.413,0.3297-6.9031,0.326-10.4464c-0.0927-3.5483-0.2547-7.1519-0.707-10.7837
		c-0.3821-3.6355-1.0334-7.2861-1.7624-10.9502c-0.8758-3.6381-1.7355-7.3164-3.0068-10.9089
		c-0.2768-0.9095-0.6064-1.8041-0.9546-2.6938c-0.3355-0.8906-0.6723-1.7848-1.0103-2.6826
		c-0.7638-1.7571-1.4502-3.5505-2.326-5.2694c-0.7881-1.7572-1.7453-3.4395-2.642-5.1519l-0.1684-0.3211
		c0.0689,0.1509-0.2729-0.5646,0.1331,0.2977l-0.1098-0.1888l-0.4399-0.756l-0.8824-1.5161
		c-0.5891-1.0125-1.1805-2.0286-1.7737-3.0482l-0.4421-0.7491l-0.4081-0.5817l-0.8116-1.1653
		c-0.5315-0.7784-1.0647-1.5594-1.5996-2.343l-0.3956-0.592l-0.4721-0.6397l-0.9438-1.2817
		c-0.6268-0.8549-1.2555-1.7126-1.8862-2.5729c-1.2918-1.7136-2.712-3.4135-4.0628-5.1334
		c-1.3964-1.7208-2.8903-3.4384-4.3349-5.1703c-5.9811-6.9044-12.6739-13.926-19.7406-21.4159
		c-7.0613-7.4904-14.4717-15.483-21.7247-24.4717l-2.7034-3.3998l-2.652-3.5599c-0.878-1.2026-1.7804-2.3633-2.6391-3.6093
		l-2.5651-3.7686l-1.281-1.8928l-0.3176-0.4756l-0.5876-0.9701l-0.5202-0.8593l-2.0839-3.4422l-1.0436-1.724
		c-0.1648-0.2573-0.3637-0.6257-0.5633-0.9986l-0.591-1.0961l-2.3482-4.4066l-1.1639-2.2156
		c-0.3599-0.7232-0.6692-1.4161-1.0057-2.1269l-1.9568-4.2582l-0.9666-2.1385l-0.8693-2.1775l-1.7298-4.3673
		c-0.6012-1.45-1.0994-2.9342-1.5982-4.4203l-1.5051-4.4604c-0.9849-2.9823-1.7252-6.0366-2.5853-9.0628
		c-3.1495-12.1783-4.9344-24.746-5.3362-37.3791c-0.3519-12.6312,0.6114-25.3351,3.0808-37.7514
		c1.2234-6.2307,2.7585-12.3064,4.7243-18.4143l1.2938-3.9253l1.6796-4.6234l0.8494-2.2963l0.8595-2.1112l1.7423-4.2038
		c2.4415-5.4899,4.9699-10.8761,7.6832-15.9851c2.6991-5.1527,5.539-10.0513,8.3719-14.8693
		c5.7441-9.5379,11.6122-18.4798,17.3156-27.018c2.8059-4.2154,5.5882-8.3957,8.3444-12.5365
		c0.675-1.0245,1.3485-2.0466,2.0203-3.0661c0.6531-1.0132,1.3046-2.0239,1.9545-3.032c0.6679-1.0342,1.3341-2.0657,1.9985-3.0945
		c0.6162-0.9735,1.2308-1.9445,1.8438-2.9128c1.2395-1.9127,2.4168-3.9458,3.6214-5.8999c1.1645-1.9715,2.3222-3.9316,3.4729-5.8799
		c1.0824-1.9577,2.1965-3.9023,3.2394-5.8447c0.9904-1.9504,2.0957-3.8677,3.0292-5.7992
		c7.787-15.4035,12.9329-30.4522,14.6645-44.7363c0.2954-1.7905,0.384-3.5541,0.5186-5.3134
		c0.0649-0.8146,0.1297-1.6246,0.1941-2.4302c0.0077-0.9758,0.0153-1.9462,0.023-2.9109c-0.0035-0.7557-0.0068-1.507-0.0103-2.2538
		c-0.0449-0.8295-0.0897-1.6541-0.1341-2.4737c-0.1441-1.6388-0.2659-3.2776-0.4828-4.8928
		c-0.4134-3.2327-1.0354-6.3899-1.8201-9.4372c-0.7969-3.0443-1.7884-5.9575-2.8323-8.7755
		c-2.1178-5.6325-4.875-10.624-7.7666-15.0643c-2.9481-4.3969-6.1579-8.1565-9.3956-11.2533
		c-6.5065-6.1809-13.0353-9.7387-17.7255-11.627c-1.1687-0.5056-2.232-0.8704-3.1568-1.195
		c-0.9217-0.3463-1.713-0.5931-2.3571-0.7644c-1.2937-0.3718-1.9613-0.5637-1.9613-0.5637s0.6948-0.0524,2.0408-0.1539
		c0.6795-0.0643,1.5229-0.1093,2.5291-0.1054c1.0115-0.0298,2.1861-0.0236,3.513,0.0835c2.6683,0.1335,5.9801,0.5535,9.8094,1.5504
		c3.8396,0.9622,8.188,2.5367,12.8011,4.9415c9.2292,4.7586,19.4214,13.0932,27.8447,25.3841
		c4.244,6.1193,7.9128,13.2602,10.8074,21.3002c0.7291,2.0092,1.3785,4.0854,1.9628,6.2162
		c0.2705,1.0743,0.5428,2.1551,0.8167,3.2424c0.24,1.181,0.4815,2.3689,0.7243,3.5638c0.1818,0.9934,0.3647,1.9926,0.5486,2.9974
		l0.0669,0.3688c-0.0067-0.1741,0.0474,0.4416,0.0503,0.4574l0.0254,0.2092l0.1014,0.839l0.2018,1.6883
		c0.2671,2.2602,0.5692,4.5599,0.6531,6.877c0.6024,9.2943,0.0267,19.0192-1.5728,28.7831
		c-1.5962,9.7711-4.2069,19.583-7.5655,29.2553c-3.3541,9.7024-7.4189,19.1963-12.0202,28.6373
		c-0.5848,1.1936-1.1711,2.3905-1.7591,3.5905c-0.5662,1.1298-1.1339,2.2626-1.703,3.3982
		c-0.5966,1.1564-1.1946,2.3157-1.7941,3.4778c-0.6035,1.1425-1.2087,2.2878-1.8153,3.4359
		c-2.4267,4.5949-4.886,9.1304-7.3856,13.6494c-4.9462,9.0277-9.9258,17.9388-14.5172,26.8467
		c-2.2695,4.4391-4.5128,8.887-6.514,13.3353c-2.1035,4.435-3.9264,8.877-5.6752,13.3235l-1.2116,3.3349l-0.6195,1.6635
		l-0.5014,1.5299l-1.0157,3.0425l-1.1301,3.8438l-0.5694,1.9561l-0.1425,0.4892c0.2486-0.8255,0.0413-0.1093,0.0843-0.2396
		l-0.0484,0.2082l-0.1941,0.8327l-0.7966,3.3259l-0.4135,1.6598c-0.1251,0.557-0.2136,1.1243-0.3233,1.6858l-0.6384,3.3757
		c-1.5609,9.0338-2.2654,18.3049-1.9578,27.5763c0.2326,9.2737,1.5148,18.5314,3.6044,27.5387
		c0.6057,2.2288,1.0845,4.4966,1.7634,6.6984l0.9996,3.3077c0.3256,1.1052,0.6461,2.2121,1.0624,3.2814l1.1628,3.2402l0.5753,1.6218
		l0.663,1.5811l1.3168,3.1637l0.6455,1.571l0.6622,1.3954l1.2983,2.8046l0.3194,0.7043c0.1005,0.2289,0.2033,0.4612,0.3859,0.7797
		l0.9647,1.7694l1.9264,3.5327l0.4809,0.8819l0.1202,0.2204c0.3217,0.5499-0.3026-0.4986-0.1976-0.3263l0.2252,0.3684l0.8883,1.4807
		l1.7657,2.9656c0.5935,0.9887,1.278,1.968,1.9099,2.9527l1.9331,2.9507l2.0759,2.9411
		c5.504,7.8765,11.7534,15.7046,18.1176,23.7581c6.3667,8.0483,12.9004,16.3125,18.9473,25.108
		c1.4967,2.2405,3.0028,4.4202,4.4536,6.6721c1.4114,2.3126,2.8457,4.5504,4.1945,6.8809c0.6624,1.1799,1.3227,2.3563,1.981,3.5289
		l0.9807,1.7549l0.488,0.8751l0.4908,0.9636c0.6419,1.2912,1.2819,2.5782,1.9197,3.861l0.9395,1.9213l0.4652,0.9578l0.3507,0.8297
		c0.9839,2.3698,1.9608,4.7236,2.9311,7.0604c0.9458,2.5488,1.8592,5.0802,2.5999,7.6371c0.8241,2.531,1.4212,5.0965,2.0727,7.6139
		c0.2982,1.2655,0.5431,2.5362,0.8009,3.7959c0.2647,1.2585,0.5042,2.5137,0.684,3.7725c0.8819,5.0077,1.2861,9.9633,1.5456,14.7938
		c0.1258,4.8386,0.1621,9.5608-0.2543,14.1465c-1.3097,18.3688-6.5059,34.3346-12.8936,47.2282
		c-6.4504,12.9208-14.1722,22.7947-21.2522,29.9437c-3.5663,3.565-6.8987,6.5372-9.991,8.8716
		c-0.7619,0.5891-1.4954,1.1563-2.1997,1.7009c-0.7298,0.5106-1.4297,1.0002-2.0988,1.4683
		c-0.6698,0.4594-1.3089,0.8976-1.917,1.3146c-0.6288,0.3936-1.2256,0.767-1.7892,1.1199
		c-2.2272,1.4427-3.9949,2.3474-5.1866,2.9832C266.9973,706.1464,266.3843,706.4752,266.3843,706.4752z"/>
	<path d="M512.7908,723.9415c0,0-0.426-0.8402-1.2516-2.4681c-0.818-1.6311-2.071-4.0352-3.6154-7.2079
		c-1.5671-3.1641-3.4824-7.0752-5.6673-11.7051c-2.2029-4.6256-4.681-9.9677-7.3419-16.0187
		c-2.719-6.0295-5.5164-12.8051-8.4659-20.2592c-2.9869-7.4441-5.8599-15.6559-8.7187-24.5684
		c-2.8622-8.9138-5.4272-18.6009-7.6697-29.0167c-0.2758-1.3044-0.553-2.6171-0.8319-3.9382
		c-0.2403-1.3386-0.4821-2.6856-0.7256-4.0409c-0.2275-1.2927-0.4565-2.5933-0.687-3.9017
		c-0.1999-1.4102-0.4013-2.8287-0.6038-4.2556c-0.1962-1.4313-0.3932-2.8708-0.5916-4.3185
		c-0.1558-1.4247-0.3127-2.8574-0.4702-4.298c-0.3507-2.8812-0.5571-5.8139-0.7773-8.7836
		c-0.8293-11.8795-0.7026-24.4366,0.7538-37.4952c0.3929-3.2611,0.7378-6.5667,1.3727-9.8722
		c0.2955-1.655,0.5475-3.3249,0.8889-4.9907c0.3618-1.665,0.725-3.3365,1.0897-5.0145l0.5553-2.525l0.6672-2.5169
		c0.4504-1.6834,0.9025-3.373,1.3561-5.0687c0.4899-1.6891,1.0557-3.3691,1.588-5.0656c0.5507-1.6916,1.0536-3.4062,1.7177-5.0817
		c1.26-3.371,2.4926-6.7906,4.0461-10.1253c0.7718-1.6668,1.4477-3.3842,2.3166-5.0259c0.8462-1.654,1.695-3.3131,2.5464-4.9774
		l0.6433-1.2493l0.1613-0.3126l0.442-0.7343l0.3103-0.5366l1.2446-2.1504c0.8392-1.4429,1.6808-2.8901,2.5249-4.3414
		c1.1013-1.6677,2.2058-3.3402,3.3132-5.0174l1.6842-2.5146c0.5652-0.8533,1.1283-1.5477,1.6953-2.3309
		c1.1374-1.5245,2.2776-3.0532,3.4211-4.5859c1.1315-1.55,2.3994-2.9599,3.6032-4.4519c1.2298-1.4602,2.4284-2.9789,3.7285-4.3762
		c1.2977-1.4045,2.5987-2.8124,3.9025-4.2237c1.2893-1.4368,2.6539-2.7752,4.0217-4.1205c1.3683-1.3476,2.7402-2.6983,4.115-4.052
		c1.4195-1.2876,2.8419-2.5782,4.2678-3.8715c1.4259-1.2999,2.8693-2.5798,4.3574-3.7865
		c11.7541-9.9426,24.484-18.7466,37.7045-26.56c6.607-3.9552,13.3585-7.5661,20.1555-11.1394
		c1.7072-0.8596,3.4161-1.7204,5.1273-2.5822l2.699-1.3427l2.4729-1.1935l4.9637-2.3929l5.2267-2.4449
		c27.5073-12.7503,54.923-23.5676,79.879-36.5528c6.2673-3.2057,12.3149-6.5879,18.2068-10.1123l4.3718-2.6826l0.5469-0.3347
		c-0.0674,0.046,0.5364-0.3395-0.0817,0.061l0.2917-0.1927l1.1691-0.7679l2.3415-1.5295c3.3737-2.1346,5.5946-3.8373,8.2369-5.6635
		c10.6138-7.832,20.603-16.5494,28.9485-26.0963c16.937-19.0264,27.3786-41.2046,28.6542-63.7276
		c0.3165-5.6541,0.1128-11.3564-0.5704-17.0305c-0.6989-5.6715-1.865-11.3152-3.431-16.8638
		c-1.5793-5.5451-3.5774-10.985-5.8826-16.2825c-2.3154-5.2947-4.9893-10.4174-7.8667-15.386
		c-5.7815-9.9312-12.6738-19.0258-20.0733-27.2408c-3.6968-4.1146-7.5453-7.9939-11.4978-11.6277
		c-0.9927-0.9027-1.967-1.8231-2.9835-2.6794c-0.9444-0.8159-1.8842-1.628-2.8192-2.436c-2.2465-1.7772-4.4529-3.562-6.6317-5.3356
		c-8.0033-6.2997-16.6909-12.058-25.0438-17.2038c-8.361-5.2165-16.7585-9.5388-24.6718-13.6728
		c-15.9554-8.0422-30.4794-14.315-42.5084-19.4279c-12.1171-5.0456-21.6375-9.01-28.1286-11.7131
		c-6.505-2.7503-9.9743-4.2171-9.9743-4.2171s0.9328,0.1323,2.7399,0.3886c1.8057,0.2639,4.4954,0.616,7.9809,1.1647
		c3.4882,0.5461,7.797,1.1852,12.8398,2.0712c5.0565,0.8285,10.8484,1.8923,17.3359,3.1548
		c12.9734,2.5408,28.701,6.0478,46.5868,11.5116c2.2413,0.6608,4.498,1.4279,6.7942,2.1847
		c2.2944,0.7649,4.6293,1.5344,6.9688,2.4216c2.35,0.8665,4.7339,1.7454,7.1505,2.6364c2.3994,0.9673,4.8312,1.9477,7.2948,2.9409
		c9.8453,4.137,19.8646,9.0098,30.4977,15.1805c2.4081,1.4473,4.8359,2.9168,7.2704,4.4266l0.4576,0.2818l0.229,0.141l0.4969,0.3455
		l0.9656,0.6485l1.9393,1.3043c1.3077,0.8593,2.5729,1.7852,3.8604,2.6989c5.1315,3.6776,10.1972,7.6711,15.1523,11.9941
		c9.899,8.659,19.2041,18.7748,27.6421,30.2391c4.2216,5.7331,8.1314,11.8692,11.7068,18.364
		c3.5838,6.4905,6.7814,13.3715,9.4902,20.6123c2.7219,7.2348,4.9333,14.8418,6.4716,22.7511
		c1.548,7.9033,2.4609,16.1096,2.497,24.4673c-0.0355,2.1143-0.0239,4.1305-0.1215,6.3442l-0.2125,3.42
		c-0.0753,1.1265-0.1557,2.3834-0.2464,3.1478l-0.2644,2.639l-0.1325,1.3214l-0.1947,1.2701l-0.1305,0.7841
		c-0.3571,2.0924-0.7151,4.1887-1.074,6.2888c-0.3086,2.1186-0.9081,4.1538-1.3942,6.2313
		c-0.5396,2.0576-0.9708,4.1689-1.6255,6.1914c-1.3221,4.0375-2.5223,8.1717-4.2233,12.0647
		c-3.0741,7.9768-7.0871,15.4654-11.3834,22.7571c-2.2828,3.5325-4.4994,7.1602-7.0234,10.502
		c-1.2446,1.687-2.4351,3.4403-3.7401,5.0723l-3.9327,4.8932c-1.2925,1.6599-2.6952,3.1889-4.0813,4.7484
		c-1.4006,1.5399-2.7593,3.1403-4.207,4.6284c-2.9123,2.9522-5.7734,5.9982-8.8411,8.7691
		c-6.0017,5.7666-12.3832,10.9084-18.9996,15.9701c-13.2933,9.9396-27.1595,18.1515-41.2365,25.4516
		c-28.157,14.5531-56.6651,25.2001-82.8718,36.4489l-4.8315,2.0645l-5.0225,2.2195l-2.5107,1.1111l-2.2456,1.0293l-4.7388,2.1662
		c-6.2389,2.9533-12.4243,5.9242-18.3333,9.1349c-11.9431,6.2706-23.0779,13.1948-33.2452,20.7136
		c-10.2248,7.479-19.1385,15.829-26.9087,24.6755c-0.4708,0.5446-1.0255,1.114-1.4285,1.636l-1.2565,1.5742
		c-0.8503,1.0449-1.6982,2.087-2.5435,3.126c-0.9508,1.3584-1.8987,2.7128-2.8439,4.0633l-1.4201,2.0386l-0.3545,0.5087
		c0.0688-0.1231-0.4048,0.6346,0.1101-0.2117l-0.1409,0.2275l-0.564,0.909c-0.7573,1.2113-1.5122,2.419-2.2645,3.6228
		c-0.7825,1.1884-1.3948,2.4803-2.1038,3.7097c-0.6573,1.2591-1.4465,2.445-2.0454,3.7347
		c-0.6346,1.2732-1.2672,2.5422-1.8975,3.8068c-4.9899,10.1891-8.3363,21.0165-10.9222,31.772
		c-2.5972,10.7776-3.9025,21.6202-4.6252,32.1481c-0.1677,2.6348-0.3522,5.249-0.3914,7.8467
		c-0.0389,1.2998-0.0776,2.5925-0.1159,3.878c-0.0026,1.2578-0.0049,2.5085-0.0076,3.752c0,1.2474-0.0003,2.4876-0.0003,3.7205
		c0.0485,1.3276,0.0967,2.6473,0.1447,3.959c0.0238,0.6558,0.0477,1.3097,0.0715,1.9615l0.0285,0.9771l0.0136,0.4874
		c0.0201,0.2386-0.0203-0.0511-0.011,0.0634l0.0125,0.2328c0.0657,1.2427,0.1313,2.4776,0.1964,3.7046
		c0.5094,9.8325,1.6249,19.1946,2.7983,28.0404c2.4438,17.6827,5.6882,33.1655,8.388,45.9496
		c2.8245,12.8164,5.0434,22.8864,6.5565,29.7524C512.0004,720.2589,512.7908,723.9415,512.7908,723.9415z"/>
	<path d="M780.1026,711.9634c0,0-3.3528-0.6871-9.6393-1.9753c-3.132-0.6619-6.9624-1.7883-11.5263-3.0295
		c-2.2849-0.6274-4.643-1.4755-7.2205-2.3051c-2.558-0.8644-5.3043-1.7489-8.1102-2.9042
		c-11.3871-4.275-24.9592-10.5237-39.5328-19.6667c-14.562-9.1304-30.0891-21.1929-45.1332-36.6133
		c-1.858-1.9442-3.6899-3.9565-5.5353-5.9984c-0.9235-1.0222-1.8516-2.0495-2.7841-3.0817
		c-0.8878-1.0708-1.7798-2.1468-2.676-3.2278c-1.7807-2.1744-3.6079-4.3551-5.4003-6.5991
		c-1.7197-2.3034-3.4547-4.6273-5.2047-6.9709c-1.7955-2.3213-3.4077-4.799-5.0608-7.2843
		c-0.8253-1.2452-1.6537-2.4954-2.4857-3.7505l-0.6245-0.9438l-0.3127-0.4728c-0.0137-0.0031-0.4577-0.8272-0.3336-0.5855
		l-0.1363-0.2268l-1.0934-1.8184c-1.4576-2.4307-2.9262-4.8798-4.4058-7.3467c-1.4886-2.8166-2.9878-5.6534-4.4977-8.5098
		c-1.5807-2.8998-2.8239-5.7247-4.1821-8.6158c-0.6658-1.445-1.3338-2.8946-2.0039-4.3488
		c-0.689-1.4487-1.2329-2.9565-1.8588-4.4415c-1.1902-2.991-2.4851-5.9758-3.6033-9.0409c-1.0723-3.0848-2.1506-6.1874-3.235-9.3068
		c-4.0665-12.5732-7.2597-25.7582-9.4394-39.3768c-2.2328-13.6153-3.2005-27.6858-3.0973-41.9514
		c0.152-14.2657,1.4482-28.7411,4.0687-43.1589l1.081-5.3957l1.162-5.5871l1.1859-4.9256l1.3785-5.3497
		c1.7929-6.821,3.6703-13.3392,5.3994-19.6029c3.4274-12.5309,6.1444-24.0978,6.6718-34.6265l0.0535-1.9506l0.0355-0.9749
		l0.0192-0.4875c0.0093,0.39-0.0073-1.2175,0.0238,0.8129l-0.0113-0.3175l-0.1779-5.0794
		c-0.0114-3.9275-0.5219-5.4446-0.7366-7.7299l-0.0898-0.8143c-0.0285-0.2718-0.0421-0.5299-0.1317-0.8704l-0.4187-1.9231
		c-0.2781-1.2819-0.533-2.5682-0.7811-3.8573c-0.2801-1.286-0.7325-2.5555-1.0783-3.8372c-0.395-1.2755-0.6724-2.5699-1.142-3.8375
		c-3.5195-10.1735-8.8009-20.1687-15.3821-29.5968c-3.2307-4.7472-6.8961-9.2971-10.6979-13.7409
		c-1.8786-2.2404-3.9449-4.3594-5.8945-6.5493c-2.0408-2.1268-4.1559-4.1951-6.2173-6.2973
		c-2.1698-2.0219-4.3332-4.0377-6.4893-6.0468c-2.2495-1.9274-4.4291-3.9197-6.7125-5.7937
		c-1.1487-0.931-2.2956-1.8603-3.4399-2.7879l-1.7101-1.4003l-0.2133-0.1754c-0.1142-0.0911,0.2572,0.1741-0.0145-0.0253
		l-0.4774-0.366l-0.9543-0.7314c-1.2716-0.9747-2.5406-1.9476-3.8072-2.9185l-1.8877-1.4417l-1.7748-1.3021
		c-2.3773-1.7408-4.6639-3.4547-7.1902-5.2265c-2.4677-1.7618-4.9144-3.5232-7.4314-5.2414
		c-2.4915-1.7286-4.978-3.449-7.5087-5.1451c-2.5225-1.714-5.032-3.4192-7.5284-5.1152
		c-10.0612-6.7719-20.1128-13.5031-29.8561-20.4117c-19.5116-13.7798-37.6696-28.4791-52.3302-44.6222
		c-7.407-8.2748-13.6368-16.5932-18.9118-25.0341c-5.1994-8.4572-9.5236-16.8251-12.768-25.0337
		c-3.2499-8.1975-5.626-16.1216-7.0865-23.5792c-1.4439-7.465-2.1236-14.4132-2.1216-20.665
		c-0.0956-12.5279,2.2424-22.0536,4.2521-28.2115c1.0255-3.0909,1.9545-5.3875,2.6487-6.9056c0.6695-1.5184,1.015-2.302,1.015-2.302
		s-0.1087,0.8488-0.3188,2.4933c-0.245,1.6278-0.4292,4.0795-0.6253,7.2216c-0.0392,1.5823-0.1601,3.3257-0.0872,5.2569
		c0.0317,0.9642-0.0058,1.9604,0.0544,3.0053c0.0596,1.0398,0.1215,2.1224,0.1857,3.247c0.3766,4.4837,1.0694,9.573,2.3817,15.1096
		c1.3442,5.5293,3.2083,11.515,5.866,17.7481c2.7353,6.2054,6.0165,12.7322,10.2483,19.2665
		c2.1056,3.269,4.4061,6.5549,6.8496,9.8634c2.4984,3.2795,5.1736,6.5602,8.0477,9.8071c2.9184,3.2148,5.9427,6.4604,9.19,9.6248
		c3.2278,3.142,6.7596,6.2874,10.2977,9.1886c7.2823,6.0147,15.4731,11.8833,24.2626,17.4919
		c8.7931,5.6427,18.2051,11.1617,28.1454,16.7172c10.1417,5.5742,20.56,11.3005,31.2088,17.1535
		c5.4046,2.9775,10.9042,6.0647,16.4459,9.3254c5.5641,3.2394,11.0994,6.5677,16.9294,10.333l2.1683,1.3826l2.0079,1.3287
		c1.3294,0.883,2.6617,1.7678,3.9964,2.6543l1.0013,0.6652l0.5013,0.3328c-0.1081-0.0836,0.4263,0.2984,0.4705,0.3305l0.2656,0.1886
		l2.1254,1.5154c1.4146,1.018,2.832,2.038,4.2518,3.0597c2.8286,2.0638,5.5781,4.2786,8.3845,6.4321
		c2.7533,2.2329,5.4769,4.5424,8.2087,6.8532c2.6496,2.4326,5.3372,4.835,7.9693,7.3353c2.5673,2.5901,5.2154,5.0936,7.7255,7.7983
		c5.0099,5.4113,9.9005,11.0591,14.4258,17.1707c9.0555,12.1664,17.0317,25.8835,22.5281,41.1887
		c0.7163,1.8919,1.2498,3.8866,1.8725,5.8313c0.5783,1.9666,1.2408,3.8979,1.729,5.9028l1.339,6.0664l0.6419,3.0411
		c0.1168,0.482,0.1886,1.067,0.2662,1.6348l0.2287,1.7047c0.2996,2.2744,0.5768,4.5544,0.8308,6.8347
		c0.3304,2.5458,0.2824,3.8705,0.3774,5.6458l0.2046,5.0784l0.0128,0.3174c0.034,2.242,0.0041,0.8462,0.009,1.4479l-0.0195,0.7827
		l-0.0421,1.5655l-0.1029,3.1302c-0.9639,16.6006-4.8551,31.5333-8.7664,44.9441c-1.9193,6.4296-3.8345,12.8466-5.7443,19.2447
		l-1.2542,4.3696l-1.2937,4.8171c-0.6814,2.8745-1.3614,5.744-2.0402,8.6078c-2.5368,11.7678-4.1627,23.6852-4.8743,35.5565
		c-0.7424,11.8683-0.6315,23.7056,0.4382,35.2946c1.0302,11.5938,2.866,22.9464,5.3412,33.9451
		c0.6878,2.734,1.3718,5.4532,2.0521,8.1568c0.6916,2.7047,1.5552,5.3385,2.3136,7.9968c0.4094,1.3176,0.7378,2.6646,1.2092,3.9512
		c0.4512,1.296,0.9014,2.5879,1.35,3.8756c0.9025,2.5602,1.7238,5.231,2.7088,7.5647c0.9485,2.424,1.8906,4.8313,2.8259,7.2215
		c1.1856,2.6208,2.363,5.2227,3.5312,7.805l0.8726,1.9341l0.1087,0.2413c0.2084,0.3963-0.1619-0.2675-0.0828-0.1208l0.2217,0.4373
		l0.4428,0.8738c0.5902,1.1662,1.1777,2.3278,1.763,3.4847c1.1896,2.3058,2.2596,4.666,3.562,6.8705
		c1.2487,2.2436,2.4869,4.4683,3.714,6.6733c1.3303,2.1511,2.649,4.2831,3.9551,6.3952c0.6594,1.057,1.3158,2.109,1.969,3.156
		c0.7003,1.0156,1.3974,2.0263,2.0908,3.0321c1.3826,2.0262,2.7513,4.0323,4.106,6.0178
		c11.2773,15.5983,23.415,28.8364,35.1526,39.685c11.7364,10.8734,23.0977,19.3069,32.8297,25.7925
		c2.3926,1.7064,4.7676,3.1248,6.9929,4.5007c2.2277,1.3613,4.2858,2.7657,6.2673,3.8775c1.9882,1.1295,3.8276,2.1747,5.513,3.1321
		c1.6938,0.9671,3.213,1.8998,4.6592,2.5998C777.0709,710.3754,780.1026,711.9634,780.1026,711.9634z"/>
</g>
</svg>
