<?xml version="1.0" encoding="UTF-8" standalone="no"?>
<svg
   xmlns:dc="http://purl.org/dc/elements/1.1/"
   xmlns:cc="http://creativecommons.org/ns#"
   xmlns:rdf="http://www.w3.org/1999/02/22-rdf-syntax-ns#"
   xmlns:svg="http://www.w3.org/2000/svg"
   xmlns="http://www.w3.org/2000/svg"
   xmlns:xlink="http://www.w3.org/1999/xlink"
   xmlns:sodipodi="http://sodipodi.sourceforge.net/DTD/sodipodi-0.dtd"
   xmlns:inkscape="http://www.inkscape.org/namespaces/inkscape"
   sodipodi:docname="pace-my-race-logo.svg"
   inkscape:version="1.0 (4035a4fb49, 2020-05-01)"
   id="svg2096"
   version="1.1"
   viewBox="0 0 159.01947 31.334604"
   height="31.334604mm"
   width="159.01947mm">
  <defs
     id="defs2090">
    <linearGradient
       id="linearGradient3616"
       inkscape:collect="always">
      <stop
         id="stop3612"
         offset="0"
         style="stop-color:#330080;stop-opacity:1;" />
      <stop
         id="stop3614"
         offset="1"
         style="stop-color:#330080;stop-opacity:0;" />
    </linearGradient>
    <linearGradient
       id="linearGradient2136"
       inkscape:collect="always">
      <stop
         id="stop2132"
         offset="0"
         style="stop-color:#2a7fff;stop-opacity:1" />
      <stop
         style="stop-color:#ff80e5;stop-opacity:1"
         offset="0.47933361"
         id="stop2142" />
      <stop
         id="stop2134"
         offset="1"
         style="stop-color:#2a7fff;stop-opacity:1" />
    </linearGradient>
    <linearGradient
       id="linearGradient2128"
       inkscape:collect="always">
      <stop
         id="stop2124"
         offset="0"
         style="stop-color:#0000ff;stop-opacity:1" />
      <stop
         id="stop2126"
         offset="1"
         style="stop-color:#ff00ff;stop-opacity:1" />
    </linearGradient>
    <linearGradient
       gradientUnits="userSpaceOnUse"
       y2="60.041199"
       x2="195.16351"
       y1="60.041199"
       x1="35.442001"
       id="linearGradient2130"
       xlink:href="#linearGradient2128"
       inkscape:collect="always" />
    <linearGradient
       gradientUnits="userSpaceOnUse"
       y2="89.306274"
       x2="178.12784"
       y1="89.899643"
       x1="64.265823"
       id="linearGradient2138"
       xlink:href="#linearGradient2136"
       inkscape:collect="always" />
    <linearGradient
       y2="89.306274"
       x2="178.12784"
       y1="89.899643"
       x1="64.265823"
       gradientUnits="userSpaceOnUse"
       id="linearGradient3298"
       xlink:href="#linearGradient2136"
       inkscape:collect="always" />
    <linearGradient
       y2="89.306274"
       x2="178.12784"
       y1="89.899643"
       x1="64.265823"
       gradientUnits="userSpaceOnUse"
       id="linearGradient3300"
       xlink:href="#linearGradient2136"
       inkscape:collect="always" />
    <linearGradient
       y2="89.306274"
       x2="178.12784"
       y1="89.899643"
       x1="64.265823"
       gradientUnits="userSpaceOnUse"
       id="linearGradient3302"
       xlink:href="#linearGradient2136"
       inkscape:collect="always" />
    <linearGradient
       y2="89.306274"
       x2="178.12784"
       y1="89.899643"
       x1="64.265823"
       gradientUnits="userSpaceOnUse"
       id="linearGradient3306"
       xlink:href="#linearGradient2136"
       inkscape:collect="always" />
    <linearGradient
       y2="89.306274"
       x2="178.12784"
       y1="89.899643"
       x1="64.265823"
       gradientUnits="userSpaceOnUse"
       id="linearGradient3308"
       xlink:href="#linearGradient2136"
       inkscape:collect="always" />
    <linearGradient
       y2="89.306274"
       x2="178.12784"
       y1="89.899643"
       x1="64.265823"
       gradientUnits="userSpaceOnUse"
       id="linearGradient3310"
       xlink:href="#linearGradient2136"
       inkscape:collect="always" />
    <linearGradient
       y2="89.306274"
       x2="178.12784"
       y1="89.899643"
       x1="64.265823"
       gradientUnits="userSpaceOnUse"
       id="linearGradient3312"
       xlink:href="#linearGradient2136"
       inkscape:collect="always" />
    <linearGradient
       y2="89.306274"
       x2="178.12784"
       y1="89.899643"
       x1="64.265823"
       gradientUnits="userSpaceOnUse"
       id="linearGradient3314"
       xlink:href="#linearGradient2136"
       inkscape:collect="always" />
    <linearGradient
       y2="89.306274"
       x2="178.12784"
       y1="89.899643"
       x1="64.265823"
       gradientUnits="userSpaceOnUse"
       id="linearGradient3316"
       xlink:href="#linearGradient2136"
       inkscape:collect="always" />
    <linearGradient
       y2="89.306274"
       x2="178.12784"
       y1="89.899643"
       x1="64.265823"
       gradientUnits="userSpaceOnUse"
       id="linearGradient3318"
       xlink:href="#linearGradient2136"
       inkscape:collect="always" />
    <linearGradient
       gradientUnits="userSpaceOnUse"
       y2="88.897292"
       x2="162.87961"
       y1="88.897292"
       x1="143.05293"
       id="linearGradient3618"
       xlink:href="#linearGradient3616"
       inkscape:collect="always" />
  </defs>
  <sodipodi:namedview
     inkscape:window-maximized="1"
     inkscape:window-y="-8"
     inkscape:window-x="1912"
     inkscape:window-height="1009"
     inkscape:window-width="1920"
     inkscape:snap-global="false"
     showgrid="false"
     inkscape:document-rotation="0"
     inkscape:current-layer="text2146"
     inkscape:document-units="mm"
     inkscape:cy="244.93954"
     inkscape:cx="267.74905"
     inkscape:zoom="1.4142136"
     inkscape:pageshadow="2"
     inkscape:pageopacity="0.0"
     borderopacity="1.0"
     bordercolor="#666666"
     pagecolor="#ffffff"
     id="base" />
  <metadata
     id="metadata2093">
    <rdf:RDF>
      <cc:Work
         rdf:about="">
        <dc:format>image/svg+xml</dc:format>
        <dc:type
           rdf:resource="http://purl.org/dc/dcmitype/StillImage" />
        <dc:title></dc:title>
      </cc:Work>
    </rdf:RDF>
  </metadata>
  <g
     transform="translate(-33.038737,-73.720436)"
     id="layer1"
     inkscape:groupmode="layer"
     inkscape:label="Layer 1">
    <g
       id="g3296">
      <rect
         inkscape:export-ydpi="96.900002"
         inkscape:export-xdpi="96.900002"
         inkscape:export-filename="C:\Users\julia\pace-my-race-logo.png"
         style="fill:#330080;fill-opacity:1;stroke-width:0.198647;"
         id="rect3242"
         width="143.68781"
         height="19.706167"
         x="38.540001"
         y="79.023003" />
      <g
         aria-label="Pace My Race"
         id="text2146"
         style="font-style:normal;font-variant:normal;font-weight:normal;font-stretch:normal;font-size:28.4518px;line-height:1.25;font-family:'Bauhaus 93';-inkscape-font-specification:'Bauhaus 93, Normal';font-variant-ligatures:normal;font-variant-caps:normal;font-variant-numeric:normal;font-variant-east-asian:normal;letter-spacing:-1.71979px;word-spacing:-3.90831px;fill:#170b28;fill-opacity:1;stroke:none;stroke-width:0.711295">
        <path
           inkscape:export-ydpi="96.900002"
           inkscape:export-xdpi="96.900002"
           inkscape:export-filename="C:\Users\julia\pace-my-race-logo.png"
           id="path2235"
           style="font-style:normal;font-variant:normal;font-weight:normal;font-stretch:normal;font-size:28.4518px;font-family:'Bauhaus 93';-inkscape-font-specification:'Bauhaus 93, Normal';font-variant-ligatures:normal;font-variant-caps:normal;font-variant-numeric:normal;font-variant-east-asian:normal;fill:#330080;fill-opacity:1;stroke-width:0.711295;"
           d="m 42.484375,73.734375 c -4.264329,0.132287 -8.510021,3.284626 -9.19223,7.615063 -0.492631,4.517463 -0.08913,9.108172 -0.231598,13.667359 0,1.148047 0,2.296094 0,3.444141 3.644531,0 7.289062,-10e-7 10.933594,0 -0.0036,-2.179058 -0.01092,-4.358175 0.01758,-6.53711 3.136178,-0.169097 6.369914,-1.889594 7.593192,-4.900044 2.079783,-4.474445 -0.01828,-10.536122 -4.667677,-12.425277 -1.381325,-0.652653 -2.931812,-0.913602 -4.452859,-0.864132 z m 0.15625,8.429687 c 0.769478,-0.06536 1.124754,1.095615 0.376953,1.421876 -0.594688,0.474811 -1.461775,-0.237064 -1.072266,-0.902344 0.110797,-0.26567 0.392275,-0.536274 0.695313,-0.519532 z" />
        <path
           inkscape:export-ydpi="96.900002"
           inkscape:export-xdpi="96.900002"
           inkscape:export-filename="C:\Users\julia\pace-my-race-logo.png"
           id="path2237"
           style="font-style:normal;font-variant:normal;font-weight:normal;font-stretch:normal;font-size:28.4518px;font-family:'Bauhaus 93';-inkscape-font-specification:'Bauhaus 93, Normal';font-variant-ligatures:normal;font-variant-caps:normal;font-variant-numeric:normal;font-variant-east-asian:normal;fill:#330080;fill-opacity:1;stroke-width:0.711295;"
           d="m 55.587891,79.0625 c -5.22058,0.290336 -9.589391,5.447937 -8.992885,10.649329 0.250169,5.051433 5.064213,9.4569 10.155189,8.998712 1.927621,-0.162024 3.855649,-0.361137 5.791992,-0.247312 1.272396,5.38e-4 2.544792,0.0011 3.817188,0.0016 -0.167248,-3.711755 0.217461,-7.534862 -0.203125,-11.150391 -0.104054,-1.407509 -0.570215,-2.956391 -1.446961,-4.161128 -1.640125,-2.388459 -4.401154,-3.975787 -7.254554,-4.091963 -0.622012,-0.0074 -1.244725,-0.01495 -1.866844,0.0011 z m 0.871093,9.255859 c 0.694766,-0.110813 1.025996,1.20351 0.214844,1.28711 -0.699494,0.190964 -1.261114,-0.823619 -0.558594,-1.189453 0.113974,-0.03332 0.217834,-0.126418 0.34375,-0.09766 z" />
        <path
           inkscape:export-ydpi="96.900002"
           inkscape:export-xdpi="96.900002"
           inkscape:export-filename="C:\Users\julia\pace-my-race-logo.png"
           id="path2239"
           style="font-style:normal;font-variant:normal;font-weight:normal;font-stretch:normal;font-size:28.4518px;font-family:'Bauhaus 93';-inkscape-font-specification:'Bauhaus 93, Normal';font-variant-ligatures:normal;font-variant-caps:normal;font-variant-numeric:normal;font-variant-east-asian:normal;fill:#330080;fill-opacity:1;stroke-width:0.711295;"
           d="m 71.058594,79.033203 c -5.484678,0.02546 -10.247302,5.505764 -9.402285,10.949038 0.432079,5.058455 5.492022,9.347223 10.645564,8.762036 3.689164,-0.244217 7.148125,-2.920975 8.368049,-6.310683 0.737014,-2.190884 1.014731,-4.648399 0.09761,-6.834085 -1.3509,-3.977466 -5.504191,-6.820921 -9.708936,-6.566306 z" />
        <path
           inkscape:export-ydpi="96.900002"
           inkscape:export-xdpi="96.900002"
           inkscape:export-filename="C:\Users\julia\pace-my-race-logo.png"
           id="path2241"
           style="font-style:normal;font-variant:normal;font-weight:normal;font-stretch:normal;font-size:28.4518px;font-family:'Bauhaus 93';-inkscape-font-specification:'Bauhaus 93, Normal';font-variant-ligatures:normal;font-variant-caps:normal;font-variant-numeric:normal;font-variant-east-asian:normal;fill:#330080;fill-opacity:1;stroke-width:0.711295;"
           d="m 85.332031,79.019531 c -5.39463,0.01183 -10.108523,5.258204 -9.504603,10.629798 0.250823,4.948947 4.83143,9.287927 9.822842,9.072595 2.710636,-0.01601 5.587004,-1.03089 7.285277,-3.219971 0.501572,-1.076636 -0.129998,-2.202491 -0.666016,-3.126953 0.955078,0 1.910156,0 2.865235,0 0.941372,-3.644387 0.335452,-7.946709 -2.501106,-10.619591 -1.912745,-1.872261 -4.632692,-2.875373 -7.301629,-2.735878 z" />
        <path
           inkscape:export-ydpi="96.900002"
           inkscape:export-xdpi="96.900002"
           inkscape:export-filename="C:\Users\julia\pace-my-race-logo.png"
           id="path2243"
           style="font-style:normal;font-variant:normal;font-weight:normal;font-stretch:normal;font-size:28.4518px;font-family:'Bauhaus 93';-inkscape-font-specification:'Bauhaus 93, Normal';font-variant-ligatures:normal;font-variant-caps:normal;font-variant-numeric:normal;font-variant-east-asian:normal;fill:#330080;fill-opacity:1;stroke-width:0.711295;"
           d="m 99.787109,73.730469 c -3.677234,0.106464 -6.962158,3.10631 -7.533203,6.716797 -0.222196,1.523898 -0.03889,3.270879 -0.113676,4.88164 -0.01089,4.377337 -0.01597,8.754681 -0.01328,13.132032 8.45638,0 16.91276,0 25.36914,0 -0.0997,-6.140873 0.2161,-12.297939 -0.23508,-18.426861 -0.56029,-3.263082 -3.41294,-6.118263 -6.79226,-6.256733 -1.95895,-0.212909 -3.98767,0.260039 -5.62305,1.367187 -1.48806,-1.0047 -3.26406,-1.502461 -5.058594,-1.414062 z" />
        <path
           id="path2245"
           style="font-style:normal;font-variant:normal;font-weight:normal;font-stretch:normal;font-size:28.4518px;font-family:'Bauhaus 93';-inkscape-font-specification:'Bauhaus 93, Normal';font-variant-ligatures:normal;font-variant-caps:normal;font-variant-numeric:normal;font-variant-east-asian:normal;fill:#330080;fill-opacity:1;stroke-width:0.711295"
           d="m 113.37109,81.019531 c 0.0337,4.03463 -0.27057,8.096838 0.29018,12.07987 0.30879,1.173788 0.95428,2.232685 1.73912,3.148646 -0.2505,1.80951 0.0218,3.63673 -0.084,5.454683 0,0.64011 0,1.28021 0,1.92032 4.03447,2.3601 9.73899,1.81872 12.91579,-1.74168 2.45873,-2.531903 3.06619,-6.272832 2.81077,-9.669261 0,-4.298567 0,-8.597135 0,-12.895703 -5.89974,0 -11.79948,0 -17.69922,0 0.009,0.567709 0.0182,1.135417 0.0273,1.703125 z" />
        <path
           inkscape:export-ydpi="96.900002"
           inkscape:export-xdpi="96.900002"
           inkscape:export-filename="C:\Users\julia\pace-my-race-logo.png"
           id="path2247"
           style="font-style:normal;font-variant:normal;font-weight:normal;font-stretch:normal;font-size:28.4518px;font-family:'Bauhaus 93';-inkscape-font-specification:'Bauhaus 93, Normal';font-variant-ligatures:normal;font-variant-caps:normal;font-variant-numeric:normal;font-variant-east-asian:normal;fill:#330080;fill-opacity:1;stroke-width:0.711295;"
           d="m 135.79883,74.210938 c -2.27995,0.0045 -4.5599,-0.002 -6.83985,-0.0059 0,8.085287 0,16.170573 0,24.25586 7.24675,-10e-7 14.49349,0 21.74024,0 -1.35847,-3.26755 -2.73654,-6.52693 -4.04102,-9.816407 1.27904,-1.518274 1.95202,-3.48786 1.9668,-5.40039 0.0775,-2.771086 -1.21699,-5.716586 -3.61811,-7.296933 -2.38612,-1.706622 -5.43819,-1.86303 -8.26656,-1.746815 -0.31383,0.0035 -0.62767,0.007 -0.9415,0.01054 z" />
        <path
           inkscape:export-ydpi="96.900002"
           inkscape:export-xdpi="96.900002"
           inkscape:export-filename="C:\Users\julia\pace-my-race-logo.png"
           id="path2249"
           style="font-style:normal;font-variant:normal;font-weight:normal;font-stretch:normal;font-size:28.4518px;font-family:'Bauhaus 93';-inkscape-font-specification:'Bauhaus 93, Normal';font-variant-ligatures:normal;font-variant-caps:normal;font-variant-numeric:normal;font-variant-east-asian:normal;fill:url(#linearGradient3618);fill-opacity:1;stroke-width:0.711295;"
           d="m 152.09766,79.0625 c -2.69565,0.141553 -5.22539,1.649288 -6.84278,3.681321 -1.69459,2.049656 -2.48631,4.791949 -2.10979,7.427737 0.50303,4.86328 5.18463,8.979824 10.11682,8.538983 1.92762,-0.162024 3.85565,-0.361137 5.792,-0.247312 1.27174,5.38e-4 2.54349,0.0011 3.81523,0.0016 -0.23193,-4.386555 0.44942,-8.860044 -0.57812,-13.177735 -1.08989,-3.223892 -4.10679,-5.646382 -7.40743,-6.136131 -0.92092,-0.142421 -1.85781,-0.0905 -2.78593,-0.08848 z m 0.84961,9.224609 c 0.69748,-0.07301 1.06764,1.05673 0.32226,1.275391 -0.61708,0.297871 -1.22904,-0.510865 -0.79815,-1.045971 0.0351,-0.200323 0.32073,-0.192857 0.47589,-0.22942 z" />
        <path
           inkscape:export-ydpi="96.900002"
           inkscape:export-xdpi="96.900002"
           inkscape:export-filename="C:\Users\julia\pace-my-race-logo.png"
           id="path2251"
           style="font-style:normal;font-variant:normal;font-weight:normal;font-stretch:normal;font-size:28.4518px;font-family:'Bauhaus 93';-inkscape-font-specification:'Bauhaus 93, Normal';font-variant-ligatures:normal;font-variant-caps:normal;font-variant-numeric:normal;font-variant-east-asian:normal;fill:#330080;fill-opacity:1;stroke-width:0.711295;"
           d="m 167.56641,79.033203 c -2.89526,0.0108 -5.64079,1.589891 -7.36385,3.793999 -1.70143,2.086763 -2.4567,4.886936 -1.99276,7.54268 0.4758,3.375337 2.8633,6.272168 5.98442,7.645249 3.69901,1.646579 8.32895,0.574615 11.02819,-2.416074 1.28772,-1.380139 2.12324,-3.071681 2.40609,-4.89754 1.02752,-4.155392 -1.37975,-8.665846 -5.12399,-10.568384 -1.51033,-0.793559 -3.23005,-1.205761 -4.9381,-1.09993 z" />
        <path
           inkscape:export-ydpi="96.900002"
           inkscape:export-xdpi="96.900002"
           inkscape:export-filename="C:\Users\julia\pace-my-race-logo.png"
           id="path2253"
           style="font-style:normal;font-variant:normal;font-weight:normal;font-stretch:normal;font-size:28.4518px;font-family:'Bauhaus 93';-inkscape-font-specification:'Bauhaus 93, Normal';font-variant-ligatures:normal;font-variant-caps:normal;font-variant-numeric:normal;font-variant-east-asian:normal;fill:#330080;fill-opacity:1;stroke-width:0.711295;"
           d="m 181.83984,79.019531 c -5.39312,0.01522 -10.11245,5.262811 -9.50069,10.635657 0.2031,3.759623 2.89932,7.187717 6.33088,8.482834 3.02146,1.089756 6.59168,0.657253 9.24466,-1.161917 0.83418,-0.628058 1.93878,-1.413228 1.69667,-2.616186 -0.062,-0.734087 -0.51028,-1.343166 -0.8262,-1.984919 0.95182,0 1.90364,0 2.85546,0 0.96933,-3.688688 0.31065,-8.06551 -2.60337,-10.728123 -1.90962,-1.803513 -4.57738,-2.764102 -7.19741,-2.627346 z" />
      </g>
      <g
         inkscape:export-ydpi="96.900002"
         inkscape:export-xdpi="96.900002"
         inkscape:export-filename="C:\Users\julia\pace-my-race-logo.png"
         aria-label="Pace My Race"
         id="text2122"
         style="font-style:normal;font-variant:normal;font-weight:normal;font-stretch:normal;font-size:28.4518px;line-height:1.25;font-family:'Bauhaus 93';-inkscape-font-specification:'Bauhaus 93, Normal';font-variant-ligatures:normal;font-variant-caps:normal;font-variant-numeric:normal;font-variant-east-asian:normal;letter-spacing:-1.71979px;word-spacing:-3.90831px;fill:url(#linearGradient3318);fill-opacity:1;stroke:none;stroke-width:0.711295;">
        <path
           d="m 42.263841,89.257134 v -4.973508 q 1.708775,0 1.708775,-1.305893 0,-1.194754 -1.305893,-1.194754 -1.319785,0 -1.319785,1.639313 V 95.814384 H 35.706591 V 84.005776 q 0,-1.833807 0.361204,-3.000775 0.375097,-1.180861 1.264216,-2.195012 1.000258,-1.125291 2.500646,-1.778238 1.500388,-0.652946 3.098023,-0.652946 2.889636,0 4.848476,1.944947 1.972732,1.944947 1.972732,4.820691 0,2.792388 -1.764345,4.528948 -1.611528,1.597635 -4.862368,1.597635 z"
           style="font-style:normal;font-variant:normal;font-weight:normal;font-stretch:normal;font-size:28.4518px;font-family:'Bauhaus 93';-inkscape-font-specification:'Bauhaus 93, Normal';font-variant-ligatures:normal;font-variant-caps:normal;font-variant-numeric:normal;font-variant-east-asian:normal;fill:url(#linearGradient3298);fill-opacity:1;stroke-width:0.711295"
           id="path3251" />
        <path
           d="m 57.687372,90.618597 v 5.37639 q -0.639054,0.11114 -1.166968,0.11114 -3.125808,0 -5.20968,-2.056088 -2.083872,-2.056087 -2.083872,-5.15411 0,-3.014668 2.097764,-5.112432 2.111657,-2.097765 5.126325,-2.097765 3.361981,0 5.293035,1.972732 1.944948,1.95884 1.944948,5.362498 v 6.793422 h -5.195788 v -6.418325 q 0,-1.097506 -0.541807,-1.750453 -0.527914,-0.652946 -1.430925,-0.652946 -0.819656,0 -1.417033,0.597376 -0.597377,0.597377 -0.597377,1.417033 0,0.861334 0.541807,1.417033 0.541807,0.555699 1.375356,0.555699 0.680731,0 1.264215,-0.361204 z"
           style="font-style:normal;font-variant:normal;font-weight:normal;font-stretch:normal;font-size:28.4518px;font-family:'Bauhaus 93';-inkscape-font-specification:'Bauhaus 93, Normal';font-variant-ligatures:normal;font-variant-caps:normal;font-variant-numeric:normal;font-variant-east-asian:normal;fill:url(#linearGradient3300);fill-opacity:1;stroke-width:0.711295"
           id="path3253" />
        <path
           d="m 73.499892,89.437736 5.15411,-0.194495 q -0.22228,3.000776 -2.236689,4.931831 -2.01441,1.931055 -4.904046,1.931055 -3.056345,0 -5.168002,-2.12555 -2.097765,-2.125549 -2.097765,-5.20968 0,-2.931313 2.12555,-5.015185 2.125549,-2.083872 5.09854,-2.083872 2.597894,0 4.584518,1.639312 1.986625,1.639313 2.472862,4.181637 l -5.26525,0.194495 q -0.680732,-0.889119 -1.722668,-0.889119 -0.889119,0 -1.45871,0.583484 -0.569592,0.583484 -0.569592,1.472603 0,0.903011 0.597377,1.51428 0.611269,0.611269 1.51428,0.611269 1.319786,0 1.875485,-1.542065 z"
           style="font-style:normal;font-variant:normal;font-weight:normal;font-stretch:normal;font-size:28.4518px;font-family:'Bauhaus 93';-inkscape-font-specification:'Bauhaus 93, Normal';font-variant-ligatures:normal;font-variant-caps:normal;font-variant-numeric:normal;font-variant-east-asian:normal;fill:url(#linearGradient3302);fill-opacity:1;stroke-width:0.711295"
           id="path3255" />
        <path
           d="m 92.8411,89.729478 h -7.877037 q -0.180602,-0.597377 -0.180602,-1.097506 0,-0.694624 0.250065,-1.361463 h 2.639571 q -0.27785,-1.542065 -1.73656,-1.542065 -0.972474,0 -1.583743,0.833549 -0.611269,0.819656 -0.611269,2.111657 0,1.34757 0.583484,2.181119 0.597377,0.833549 1.555958,0.833549 0.777979,0 1.500388,-0.777979 l 2.959098,3.556475 q -2.069979,1.62542 -4.598411,1.62542 -3.08413,0 -5.181895,-2.069979 -2.097764,-2.06998 -2.097764,-5.126326 0,-3.042453 2.111657,-5.140217 2.125549,-2.097765 5.20968,-2.097765 3.014668,0 5.056862,2.056087 2.056088,2.042195 2.056088,5.042971 0,0.305634 -0.05557,0.972473 z"
           style="font-style:normal;font-variant:normal;font-weight:normal;font-stretch:normal;font-size:28.4518px;font-family:'Bauhaus 93';-inkscape-font-specification:'Bauhaus 93, Normal';font-variant-ligatures:normal;font-variant-caps:normal;font-variant-numeric:normal;font-variant-east-asian:normal;fill:#2a7fff;fill-opacity:1;stroke-width:0.711295"
           id="path3257" />
        <path
           d="m 94.773386,95.814384 v -13.6702 q 0,-2.542324 1.542065,-4.153852 1.542066,-1.611527 4.001039,-1.611527 2.91742,0 4.48727,2.681248 0.95858,-1.444818 2.05608,-2.056087 1.09751,-0.625161 2.70904,-0.625161 2.55621,0 3.91768,1.611527 1.36146,1.611528 1.36146,4.640089 v 13.183963 h -5.64035 V 83.477862 q 0,-0.916904 -0.15281,-1.208646 -0.13893,-0.305634 -0.58349,-0.305634 -0.83355,0 -0.83355,1.417033 v 12.433769 h -5.64034 V 83.477862 q 0,-0.903011 -0.15282,-1.208646 -0.15282,-0.305634 -0.59738,-0.305634 -0.83355,0 -0.83355,1.51428 v 12.336522 z"
           style="font-style:normal;font-variant:normal;font-weight:normal;font-stretch:normal;font-size:28.4518px;font-family:'Bauhaus 93';-inkscape-font-specification:'Bauhaus 93, Normal';font-variant-ligatures:normal;font-variant-caps:normal;font-variant-numeric:normal;font-variant-east-asian:normal;fill:url(#linearGradient3306);fill-opacity:1;stroke-width:0.711295"
           id="path3259" />
        <path
           d="m 117.96282,101.8854 v -4.515058 q 1.05583,0.44456 1.8477,0.44456 2.52843,0 3.27862,-2.847959 -1.36146,0.805764 -2.66735,0.805764 -1.93106,0 -3.18138,-1.430925 -1.25033,-1.444818 -1.25033,-3.667615 v -8.710585 h 5.19579 v 7.446369 q 0,1.236431 1.02805,1.236431 0.98636,0 0.98636,-1.361463 v -7.321337 h 5.19579 v 12.364307 q 0,3.459228 -1.94495,5.584777 -2.32004,2.528434 -5.61256,2.528434 -1.44482,0 -2.87574,-0.5557 z"
           style="font-style:normal;font-variant:normal;font-weight:normal;font-stretch:normal;font-size:28.4518px;font-family:'Bauhaus 93';-inkscape-font-specification:'Bauhaus 93, Normal';font-variant-ligatures:normal;font-variant-caps:normal;font-variant-numeric:normal;font-variant-east-asian:normal;fill:url(#linearGradient3308);fill-opacity:1;stroke-width:0.711295"
           id="path3261" />
        <path
           d="m 137.24681,81.949689 v 13.864695 h -5.64035 V 76.851149 h 7.23798 q 3.30641,0 5.12633,1.639313 2.0283,1.833807 2.0283,4.653981 0,2.875743 -2.51454,4.848475 l 3.25084,7.821466 h -5.9182 l -2.73681,-6.112691 v -4.87626 h 0.44455 q 1.77824,0 1.77824,-1.528173 0,-1.347571 -2.05608,-1.347571 z"
           style="font-style:normal;font-variant:normal;font-weight:normal;font-stretch:normal;font-size:28.4518px;font-family:'Bauhaus 93';-inkscape-font-specification:'Bauhaus 93, Normal';font-variant-ligatures:normal;font-variant-caps:normal;font-variant-numeric:normal;font-variant-east-asian:normal;fill:url(#linearGradient3310);fill-opacity:1;stroke-width:0.711295"
           id="path3263" />
        <path
           d="m 154.19851,90.618597 v 5.37639 q -0.63905,0.11114 -1.16697,0.11114 -3.12581,0 -5.20968,-2.056088 -2.08387,-2.056087 -2.08387,-5.15411 0,-3.014668 2.09777,-5.112432 2.11165,-2.097765 5.12632,-2.097765 3.36198,0 5.29304,1.972732 1.94494,1.95884 1.94494,5.362498 v 6.793422 h -5.19579 v -6.418325 q 0,-1.097506 -0.5418,-1.750453 -0.52792,-0.652946 -1.43093,-0.652946 -0.81965,0 -1.41703,0.597376 -0.59738,0.597377 -0.59738,1.417033 0,0.861334 0.54181,1.417033 0.54181,0.555699 1.37536,0.555699 0.68073,0 1.26421,-0.361204 z"
           style="font-style:normal;font-variant:normal;font-weight:normal;font-stretch:normal;font-size:28.4518px;font-family:'Bauhaus 93';-inkscape-font-specification:'Bauhaus 93, Normal';font-variant-ligatures:normal;font-variant-caps:normal;font-variant-numeric:normal;font-variant-east-asian:normal;fill:url(#linearGradient3312);fill-opacity:1;stroke-width:0.711295"
           id="path3265" />
        <path
           d="m 170.01103,89.437736 5.15411,-0.194495 q -0.22227,3.000776 -2.23668,4.931831 -2.01441,1.931055 -4.90405,1.931055 -3.05635,0 -5.168,-2.12555 -2.09777,-2.125549 -2.09777,-5.20968 0,-2.931313 2.12555,-5.015185 2.12555,-2.083872 5.09854,-2.083872 2.5979,0 4.58452,1.639312 1.98663,1.639313 2.47286,4.181637 l -5.26525,0.194495 q -0.68073,-0.889119 -1.72267,-0.889119 -0.88911,0 -1.45871,0.583484 -0.56959,0.583484 -0.56959,1.472603 0,0.903011 0.59738,1.51428 0.61127,0.611269 1.51428,0.611269 1.31979,0 1.87548,-1.542065 z"
           style="font-style:normal;font-variant:normal;font-weight:normal;font-stretch:normal;font-size:28.4518px;font-family:'Bauhaus 93';-inkscape-font-specification:'Bauhaus 93, Normal';font-variant-ligatures:normal;font-variant-caps:normal;font-variant-numeric:normal;font-variant-east-asian:normal;fill:url(#linearGradient3314);fill-opacity:1;stroke-width:0.711295"
           id="path3267" />
        <path
           d="m 189.35224,89.729478 h -7.87703 q -0.18061,-0.597377 -0.18061,-1.097506 0,-0.694624 0.25007,-1.361463 h 2.63957 q -0.27785,-1.542065 -1.73656,-1.542065 -0.97247,0 -1.58374,0.833549 -0.61127,0.819656 -0.61127,2.111657 0,1.34757 0.58348,2.181119 0.59738,0.833549 1.55596,0.833549 0.77798,0 1.50039,-0.777979 l 2.9591,3.556475 q -2.06998,1.62542 -4.59842,1.62542 -3.08413,0 -5.18189,-2.069979 -2.09776,-2.06998 -2.09776,-5.126326 0,-3.042453 2.11165,-5.140217 2.12555,-2.097765 5.20968,-2.097765 3.01467,0 5.05687,2.056087 2.05608,2.042195 2.05608,5.042971 0,0.305634 -0.0556,0.972473 z"
           style="font-style:normal;font-variant:normal;font-weight:normal;font-stretch:normal;font-size:28.4518px;font-family:'Bauhaus 93';-inkscape-font-specification:'Bauhaus 93, Normal';font-variant-ligatures:normal;font-variant-caps:normal;font-variant-numeric:normal;font-variant-east-asian:normal;fill:url(#linearGradient3316);fill-opacity:1;stroke-width:0.711295"
           id="path3269" />
      </g>
      <rect
         inkscape:export-ydpi="96.900002"
         inkscape:export-xdpi="96.900002"
         inkscape:export-filename="C:\Users\julia\pace-my-race-logo.png"
         style="fill:#330080;fill-opacity:1;stroke-width:0.264583;"
         id="rect3244"
         width="5.4840002"
         height="0.29800001"
         x="33.061012"
         y="98.432022" />
    </g>
  </g>
</svg>
